<?xml version="1.0" encoding="utf-8"?>
<!-- Generator: Adobe Illustrator 24.1.2, SVG Export Plug-In . SVG Version: 6.00 Build 0)  -->
<svg version="1.1" id="Warstwa_1" xmlns="http://www.w3.org/2000/svg" xmlns:xlink="http://www.w3.org/1999/xlink" x="0px" y="0px"
	 viewBox="0 0 430 430" style="enable-background:new 0 0 430 430;" xml:space="preserve">
<style type="text/css">
	.st0{fill:#121331;}
	.st1{fill:#08a88a;}
	.st2{fill:none;stroke:#121331;stroke-width:12;stroke-linecap:round;stroke-linejoin:round;stroke-miterlimit:10;}
	.st3{fill:#00A689;}
</style>
<g>
	<g>
		<path class="st0" d="M296.18,185.81c-3.32-0.12-6.09,2.48-6.21,5.79l-1.58,45.34c-0.75,21.52-11.78,41.68-29.51,53.95
			c-11.45,7.93-24.9,12.12-38.89,12.12c-13.98,0-27.42-4.19-38.88-12.1c-3.06-2.12-5.97-4.51-8.67-7.11
			c-12.83-12.39-20.24-29.03-20.86-46.85l-1.73-49.92c-0.12-3.31-2.89-5.92-6.2-5.79c-3.31,0.11-5.9,2.89-5.79,6.2l1.73,49.92
			c0.73,20.95,9.44,40.5,24.52,55.07c2.39,2.31,4.93,4.48,7.58,6.47v20.58c0,26.63,21.67,48.3,48.3,48.3
			c26.64,0,48.31-21.67,48.31-48.3v-20.6c19.31-14.54,31.24-37.29,32.09-61.52l1.58-45.34C302.09,188.7,299.49,185.93,296.18,185.81
			z M256.3,319.48c0,20.02-16.29,36.3-36.31,36.3c-20.02,0-36.3-16.28-36.3-36.3v-13.12c11.2,5.68,23.56,8.65,36.3,8.65
			c12.75,0,25.12-2.98,36.31-8.66V319.48z"/>
		<path class="st0" d="M121.77,369.12H76.49c-8.51,0-15.43-6.92-15.43-15.43V308.4c0-3.31-2.69-6-6-6s-6,2.69-6,6v45.28
			c0,15.13,12.31,27.43,27.43,27.43h45.28c3.31,0,6-2.69,6-6S125.08,369.12,121.77,369.12z"/>
		<path class="st0" d="M121.77,48.88H76.49c-15.13,0-27.43,12.31-27.43,27.43v45.28c0,3.31,2.69,6,6,6s6-2.69,6-6V76.31
			c0-8.51,6.92-15.43,15.43-15.43h45.28c3.31,0,6-2.69,6-6S125.08,48.88,121.77,48.88z"/>
		<path class="st0" d="M353.51,49.09h-45.28c-3.31,0-6,2.69-6,6s2.69,6,6,6h45.28c8.51,0,15.43,6.92,15.43,15.43v45.28
			c0,3.31,2.69,6,6,6s6-2.69,6-6V76.53C380.95,61.4,368.64,49.09,353.51,49.09z"/>
		<path class="st0" d="M374.95,302.4c-3.31,0-6,2.69-6,6v45.28c0,8.51-6.92,15.43-15.43,15.43h-45.28c-3.31,0-6,2.69-6,6s2.69,6,6,6
			h45.28c15.13,0,27.43-12.31,27.43-27.43V308.4C380.95,305.09,378.26,302.4,374.95,302.4z"/>
	</g>
	<path class="st1" d="M295.97,197.83c-0.34,0-0.68-0.03-1.01-0.09c-2.24-0.38-4.08-2.01-4.73-4.19c-1.45-4.84-2.56-9.71-3.62-14.43
		c-4.28-18.93-8.33-36.89-34.43-57.4c-9.56,19.44-23.38,36.05-40.31,48.37c-19.66,14.3-43.09,22.41-67.74,23.44
		c-2.44,0.11-4.59-1.26-5.61-3.3c-5.35-6.3-27.42-35.06-21.55-74.13c3.29-21.89,12.07-37.12,17.01-44.26
		c3.48-5.03,8.72-8.34,14.75-9.32c6.01-0.98,12.01,0.48,16.9,4.1l19.78,14.12c3.35,2.39,7.78,2.82,11.57,1.12
		c14.78-6.63,43.89-16.72,72.73-9.73c0.05,0.01,0.11,0.03,0.16,0.04c0.87,0.24,21.43,6,33.01,23.74
		c13.12,20.1,18.14,71.86-2.05,99.46C299.67,196.93,297.86,197.83,295.97,197.83z M152.34,74.22c-0.56,0-1.13,0.05-1.69,0.14
		c-2.79,0.46-5.21,1.99-6.82,4.31c-7.4,10.68-12.87,24.97-15.01,39.21c-4.78,31.86,12.45,56.56,17.95,63.49
		c42.8-2.98,79.97-30.04,97.52-71.24c0.71-1.67,2.14-2.93,3.89-3.42c1.75-0.49,3.63-0.17,5.11,0.89
		c34.15,24.33,40.06,47.05,44.63,67.2c8.23-24.14,4.09-58.22-5.11-72.33c-8.75-13.41-24.9-18.37-26.06-18.71
		c-25.33-6.1-51.51,3.04-64.88,9.04c-7.66,3.44-16.65,2.55-23.45-2.3L158.6,76.35c-0.04-0.02-0.07-0.05-0.1-0.08
		C156.69,74.93,154.55,74.22,152.34,74.22z"/>
</g>
</svg>
