<?xml version="1.0" encoding="utf-8"?>
<!-- Generator: Adobe Illustrator 25.0.1, SVG Export Plug-In . SVG Version: 6.00 Build 0)  -->
<svg version="1.1" id="Layer_1" xmlns="http://www.w3.org/2000/svg" xmlns:xlink="http://www.w3.org/1999/xlink" x="0px" y="0px"
	 viewBox="0 0 430 430" style="enable-background:new 0 0 430 430;" xml:space="preserve">
<style type="text/css">
	.st0{clip-path:url(#SVGID_2_);}
	.st1{fill:#08a88a;}
	.st2{fill:#121331;}
</style>
<g>
	<g>
		<defs>
			<circle id="SVGID_1_" cx="215" cy="214.4" r="160.1"/>
		</defs>
		<clipPath id="SVGID_2_">
			<use xlink:href="#SVGID_1_"  style="overflow:visible;"/>
		</clipPath>
		<g class="st0">
			<path class="st1" d="M267.2,410.9c-0.4,0-0.9-0.1-1.3-0.2c-10-2.3-16.5-9.1-18.9-19.7c-0.1-0.4-0.1-0.8-0.2-1.2
				c0-0.4-1.1-39.3-9.6-56.9c-0.6-1.2-3.5-6-16.3-18.1c-6.6-6.2-9.9-15.3-8.9-24.3l1.4-12c0.2-1.4,0.8-2.8,1.9-3.7l30.1-27.4
				c2.2-2,5.4-2.1,7.7-0.3c0.3,0.2,30.3,23.4,67.6,37.6c2.9,1.1,4.5,4.2,3.7,7.1l-8.7,32.8c-0.2,0.7-0.5,1.3-0.9,1.9l-40.5,57.6
				c-0.2,4.7-0.8,17.5-1.1,21.4c-0.2,1.7-1.1,3.3-2.5,4.3C269.7,410.5,268.5,410.9,267.2,410.9z M258.8,389c0.7,2.6,1.7,4.7,3.1,6.3
				c0.3-6.3,0.6-13.2,0.6-13.3c0-1.1,0.4-2.3,1.1-3.2l40.9-58.1l7-26.6c-29-11.8-52.5-27.7-61.6-34.3l-24.7,22.5l-1.1,9.7
				c-0.6,5.3,1.3,10.6,5.2,14.2c15.5,14.6,18.1,19.9,18.9,21.7C257.1,346.6,258.6,383.4,258.8,389z"/>
			<path class="st1" d="M202.1,251.2c-1,0-2-0.2-2.9-0.7l-51.5-28.1c-1.6-0.9-2.7-2.4-3-4.2l-12.1-68.6c-0.3-1.9,0.3-3.8,1.6-5.2
				c0.2-0.2,20.7-22.2,11.9-33.7c-6-8-7.2-7.8-12.2-5.4c-0.8,0.4-1.7,0.6-2.6,0.6l-28.2-0.4c-2.7,0-5.1-1.9-5.7-4.6l-7-28.4
				c-0.5-2.1,0.1-4.2,1.6-5.7l17.8-17.6c1.1-1.1,2.6-1.7,4.2-1.7L269.6,47c0,0,0,0,0,0c2.3,0,4.4,1.3,5.4,3.4l10.3,21.2
				c1.3,2.7,0.4,6-2.1,7.7L254,98l11.4,8.5l24.9-2.1c2.1-0.2,4.1,0.7,5.3,2.4c10.2,13.9,10.7,17.5,10.8,18.7
				c1.3,10.4-4.8,27.7-5.5,29.6c-0.8,2.3-3,3.9-5.4,4l-41,1.6l-12.2,24.2c-0.8,1.6-2.3,2.7-4,3.1c-1.7,0.4-3.5,0-5-1l-24.8-18.5
				c-4.2,1-11,3.5-14,7.8c-1,1.5-1.5,3-1.6,4.8l18,13.1c0.8,0.6,1.4,1.3,1.9,2.2l14.2,29.2c1.2,2.4,0.6,5.4-1.5,7.2L206,249.7
				C204.9,250.7,203.5,251.2,202.1,251.2z M156,213.2l45.3,24.7l12.9-11.2L202.7,203l-19-13.8c-1.2-0.9-2.1-2.2-2.4-3.7
				c-1.1-5.9,0.1-11.5,3.4-16.2c7.3-10.3,22.6-12.9,24.3-13.2c1.6-0.2,3.2,0.2,4.5,1.1l21.2,15.8l10.6-21c1-1.9,2.9-3.2,5.1-3.3
				l40.4-1.5c2-6.4,4.1-15.2,3.7-20c-0.6-1.5-3.4-6.1-6.6-10.6l-23.8,2c-1.5,0.1-2.9-0.3-4.1-1.2l-20.2-15c-1.6-1.2-2.5-3.1-2.4-5
				c0.1-2,1.1-3.8,2.8-4.8l32-20.5l-6.3-13l-149.5,0.3l-13.7,13.5l5.1,20.6l22.3,0.3c12.7-5.3,19.3,1.5,25.5,9.6
				c12.8,16.8-4.4,39.6-10.7,47L156,213.2z"/>
			<path class="st1" d="M460.9,336.1c-10.8,0-30.6-20-35.4-39.6c-0.3-1.1-0.2-2.2,0.1-3.3c6.2-18.5,3.6-50.6,1.8-62.1l-21.9,2.3
				c-2,0.2-3.9-0.6-5.2-2.1c-2.4-2.8-5-5.6-7.8-8.6c-9.7-10.2-19.6-20.7-18.7-33c0.5-6.6,4.2-12.7,11.1-18.2
				c0.3-0.2,0.5-0.4,0.8-0.6c9.2-5,40.3-21.3,51-20.3c5.5,0.6,13.2,4.7,24.7,13.4c4,3,10.9,1.8,14.7,0.6l9.4-22.1l-44-15.9
				l-31.9-1.2c-2.6-0.1-4.8-1.9-5.5-4.3c-0.7-2.5,0.3-5.2,2.4-6.6c0.9-0.6,21.8-14.8,26.7-17.8c0.2-0.1,0.3-0.2,0.5-0.3l16.8-8.2
				l-27.8-15.4c-1.7-0.9-2.8-2.6-3-4.6c-0.2-1.9,0.5-3.8,1.9-5.1c2.1-1.9,21.1-19.2,29.2-23.6c1-0.5,2.1-0.8,3.3-0.7l41.7,2.8
				c2.4,0.2,4.5,1.7,5.3,4l9.3,26.6l31.2-8.6c5-8.2,13.6-19.6,22-18.7c45.5,5.3,76.3,4.4,101,3.6c31.6-1,52.5-1.6,77.3,12.4
				c6.2,3.5,2.3,11.1,0.4,14.7c-2.6,5-6.8,11.7-10.7,17.1c-4.5,6-8.9,11.3-13.8,10.7l-33.1,1.8c-0.8,0.4-6.5,4.5-14.5,34.3
				c-3.8,14-6.5,27.6-7.3,32c0.7,2.2,1.9,6.4,2.9,10.9c2.3,10.9,1.8,17-1.8,20.6c-4.2,4.2-11.5,7.9-12.3,8.3
				c-2.4,1.2-5.2,0.7-7.1-1.3c-12.6-13.5-28.2-29-32.9-32.2c-8.7,1.6-14.3,19.5-15.8,28.3c-0.5,3.1-3.3,5.3-6.5,5l-13-1.2
				c-2.4-0.2-4.4-1.8-5.1-4c-6.9-20.2-25.9-35.3-39-45.5l-6.4,22.7c-0.1,0.5-0.3,1-0.6,1.4l-16.1,27.1l18.5,2.8
				c1.8,0.3,3.4,1.3,4.3,2.9c0.9,1.6,1.1,3.4,0.4,5.1c-3.1,8.2-17.2,36.6-30.9,61c-8.1,14.5-15.2,26.2-21.1,34.7
				C470.3,333.1,465.3,336.1,460.9,336.1z M459.8,324.3L459.8,324.3L459.8,324.3z M437.5,295.2c4.3,14.8,18.2,27.2,22.8,28.8
				c2.1-1.5,10.4-9.4,32.3-48.9c10.8-19.4,20.6-38.9,25.6-49.7l-19.6-3c-2-0.3-3.7-1.6-4.5-3.4c-0.9-1.8-0.8-3.9,0.3-5.6l20.2-34.1
				l8.6-30.6c0.5-2,2-3.5,4-4.1c1.9-0.6,4.1-0.2,5.6,1.1c1.6,1.4,3.6,2.9,5.9,4.7c12.7,9.8,33.4,25.9,42.6,48.1l3.9,0.4
				c2.6-10.8,10-32.6,27.2-33c2.6-0.1,6.9-0.2,37.7,32.7c1.7-1,3.5-2.3,4.9-3.5c0.6-2.9-1.2-12.7-4-21.1c-0.3-0.9-0.4-2-0.2-2.9
				c0.1-0.7,3.3-18.5,8.4-36.6c9.9-35.5,18-40.7,24.7-41l33.3-1.8c3.6-3.2,11.9-15.7,15-22.1c-20.2-10.2-38.3-9.6-67.2-8.8
				c-25.1,0.8-56.2,1.7-102.3-3.6c-2.4,1.1-8,8-12,14.8c-0.8,1.4-2.1,2.4-3.6,2.8l-38.9,10.7c-3,0.8-6.2-0.8-7.3-3.8l-9.9-28.2
				L455.2,51c-4.7,3-13,10-19.2,15.5l30.5,16.9c2,1.1,3.1,3.2,3.1,5.4c-0.1,2.2-1.4,4.3-3.4,5.2l-26.9,13.1c-2,1.2-6.2,4.1-10.8,7.1
				l14.4,0.6c0.6,0,1.2,0.1,1.8,0.4l50.8,18.3c1.6,0.6,2.8,1.7,3.5,3.2c0.7,1.5,0.7,3.2,0,4.7l-12.9,30.3c-0.6,1.4-1.7,2.5-3.1,3.1
				c-0.7,0.3-17.3,7.5-28.9-1.2c-12.7-9.6-17.3-10.9-18.7-11.1c-4.7-0.4-26.2,9.2-43.6,18.6c-3.9,3.2-5.9,6.2-6.2,9.3
				c-0.5,6.9,7.6,15.5,15.5,23.8c2.1,2.2,4.2,4.4,6.2,6.7l24-2.5c1.9-0.2,3.8,0.5,5.1,2c1,1.1,2,2.2,3.2,11.6
				c0.8,5.7,1.3,12.4,1.6,19C441.8,263.9,441.6,281.6,437.5,295.2z M654.9,195.4L654.9,195.4L654.9,195.4z M562.9,57L562.9,57z"/>
			<path class="st1" d="M330.8,75.2c-1.3,0-2.6-0.3-3.9-0.8c-4.4-1.9-4.9-6.5-5.4-11.9c-0.7-6.6-1.6-15.5-8.1-21.7
				c-9.2-8.6-31.2-13.7-38.9-14.9c-1.8-0.3-3.3-1.3-4.3-2.9s-1.1-3.4-0.4-5.1c3.4-9,15.2-20.8,78.5-20.4c33.2,0.2,65.5,3.8,65.8,3.9
				c2.7,0.3,4.8,2.4,5.3,5s-1,5.3-3.4,6.4l-58.4,26.5c-3.6,9.5-12.7,30.8-22.5,35C333.6,74.9,332.2,75.2,330.8,75.2z M288,16.6
				c10.3,2.6,25,7.5,33.5,15.5c9.5,8.9,11,20.8,11.8,28.3c4-5.2,9.7-16.4,13.8-27.7c0.6-1.5,1.7-2.7,3.2-3.4l39.9-18.1
				c-11.8-0.9-26.8-1.7-42.1-1.8C312.7,9.3,296,13.1,288,16.6z"/>
			<path class="st1" d="M754.2,414.8c-9.9,0-19.4-4.9-25-13.1l-8.4-12.1l-51.1,11.8c-1.8,0.4-3.8,0-5.2-1.2c-1.4-1.2-2.2-3-2.1-4.9
				l1.3-26.7c0.8-16.9,17.1-30.3,32.8-34.1l41.6-32.1c2.5-1.9,6-1.6,8.1,0.7l17.2,18.6l14.1-19.3c1.5-2,4-2.9,6.4-2.3
				c2.4,0.7,4.2,2.7,4.4,5.2l2.7,28.7l11.3,19c3.9,6.5,3.5,14.7-1,20.8l-27.3,37.5c-1,1.4-2.7,2.3-4.5,2.5l-13.2,0.9
				C755.5,414.8,754.9,414.8,754.2,414.8z M723.4,376.9c1.9,0,3.8,0.9,4.9,2.6l10.7,15.4c3.7,5.3,10,8.3,16.4,7.9l10.4-0.7
				l25.7-35.2c1.6-2.2,1.8-5.2,0.4-7.6l-12-20.2c-0.5-0.8-0.7-1.6-0.8-2.5l-1.3-14.2l-9,12.4c-1.1,1.5-2.7,2.4-4.5,2.5
				c-1.8,0.1-3.5-0.6-4.8-1.9l-18.4-19.9l-38.3,29.6c-0.7,0.6-1.6,0.9-2.5,1.1c-11.4,2.3-24,12.2-24.6,23.3l-0.9,18.7l47.3-11
				C722.5,376.9,722.9,376.9,723.4,376.9z"/>
			<path class="st1" d="M696.4,292.4c-0.6,0-1.2-0.1-1.8-0.3l-56.3-17.3c-1.2-0.4-2.3-1.1-3.1-2.2l-27-37c-1.4-2-1.5-4.6-0.3-6.7
				l5.1-8.4c1-1.6,2.7-2.7,4.6-2.9c1.9-0.2,3.8,0.6,5,2l31.7,35.4l63.1,24.5c2.6,1,4.2,3.7,3.8,6.5c-0.4,2.8-2.7,4.9-5.5,5.1
				l-18.9,1.3C696.7,292.4,696.5,292.4,696.4,292.4z M643.7,263.9l3.5,1.1c-0.3-0.2-0.7-0.5-0.9-0.8l-13.1-14.6L643.7,263.9z"/>
		</g>
	</g>
	<path class="st2" d="M215,381.8c-91.6,0-166.1-74.5-166.1-166.1S123.4,49.5,215,49.5S381.1,124,381.1,215.6S306.6,381.8,215,381.8z
		 M215,61.5c-85,0-154.1,69.1-154.1,154.1S130,369.8,215,369.8s154.1-69.1,154.1-154.1S300,61.5,215,61.5z"/>
</g>
</svg>
